<?xml version="1.0" encoding="UTF-8" standalone="no"?><!DOCTYPE svg PUBLIC "-//W3C//DTD SVG 1.1//EN" "http://www.w3.org/Graphics/SVG/1.1/DTD/svg11.dtd"><svg width="100%" height="100%" viewBox="0 0 84 84" version="1.1" xmlns="http://www.w3.org/2000/svg" xmlns:xlink="http://www.w3.org/1999/xlink" xml:space="preserve" xmlns:serif="http://www.serif.com/" style="fill-rule:evenodd;clip-rule:evenodd;stroke-linejoin:round;stroke-miterlimit:2;"><path d="M8.333,0l66.667,0c4.603,0 8.333,3.731 8.333,8.333l0,66.667c0,4.603 -3.73,8.333 -8.333,8.333l-66.667,0c-4.602,0 -8.333,-3.73 -8.333,-8.333l0,-66.667c0,-4.602 3.731,-8.333 8.333,-8.333Zm0,8.333l0,66.667l66.667,0l0,-66.667l-66.667,0Zm29.722,33.352l7.778,0l0,24.982l8.334,-0l-0,-24.982l8.26,0l-0,-8.333l-8.26,-0l-0,-4.185c-0,-2.301 1.865,-4.167 4.166,-4.167l4.167,0l0,-8.333l-4.167,-0c-6.903,-0 -12.5,5.596 -12.5,12.5l0,4.185l-7.778,-0l-0,8.333Z" style="fill:#fff;"/></svg>