<?xml version="1.0" encoding="UTF-8" standalone="no"?><!DOCTYPE svg PUBLIC "-//W3C//DTD SVG 1.1//EN" "http://www.w3.org/Graphics/SVG/1.1/DTD/svg11.dtd"><svg width="100%" height="100%" viewBox="0 0 500 500" version="1.1" xmlns="http://www.w3.org/2000/svg" xmlns:xlink="http://www.w3.org/1999/xlink" xml:space="preserve" xmlns:serif="http://www.serif.com/" style="fill-rule:evenodd;clip-rule:evenodd;stroke-linejoin:round;stroke-miterlimit:2;"><circle cx="250" cy="250" r="250" style="fill:#d3f1f1;"/><rect x="240.417" y="288.334" width="19.167" height="19.166" style="fill:#828282;fill-rule:nonzero;"/><path d="M154.167,250c-0,-52.9 42.933,-95.833 95.833,-95.833c52.9,-0 95.833,42.933 95.833,95.833c0,52.9 -42.933,95.833 -95.833,95.833c-52.9,0 -95.833,-42.933 -95.833,-95.833Zm19.166,-0c0,42.262 34.404,76.666 76.667,76.666c42.262,0 76.667,-34.404 76.667,-76.666c-0,-42.263 -34.405,-76.667 -76.667,-76.667c-42.263,-0 -76.667,34.404 -76.667,76.667Z" style="fill:#828282;"/><path d="M250,192.5c-21.179,0 -38.333,17.154 -38.333,38.333l19.166,0c0,-10.541 8.625,-19.166 19.167,-19.166c10.542,-0 19.167,8.625 19.167,19.166c-0,19.167 -28.75,16.771 -28.75,47.917l19.166,0c0,-21.562 28.75,-23.958 28.75,-47.917c0,-21.179 -17.154,-38.333 -38.333,-38.333Z" style="fill:#828282;fill-rule:nonzero;"/></svg>