<?xml version="1.0" encoding="UTF-8" standalone="no"?><!DOCTYPE svg PUBLIC "-//W3C//DTD SVG 1.1//EN" "http://www.w3.org/Graphics/SVG/1.1/DTD/svg11.dtd"><svg width="100%" height="100%" viewBox="0 0 500 500" version="1.1" xmlns="http://www.w3.org/2000/svg" xmlns:xlink="http://www.w3.org/1999/xlink" xml:space="preserve" xmlns:serif="http://www.serif.com/" style="fill-rule:evenodd;clip-rule:evenodd;stroke-linejoin:round;stroke-miterlimit:2;"><circle cx="250" cy="250" r="250" style="fill:#fbf3d7;"/><rect x="238.333" y="296.667" width="23.333" height="23.333" style="fill:#ba7800;fill-rule:nonzero;"/><path d="M133.333,250c0,-64.4 52.267,-116.667 116.667,-116.667c64.4,0 116.666,52.267 116.666,116.667c0,64.4 -52.266,116.667 -116.666,116.667c-64.4,-0 -116.667,-52.267 -116.667,-116.667Zm23.334,-0c-0,51.45 41.883,93.333 93.333,93.333c51.45,-0 93.333,-41.883 93.333,-93.333c-0,-51.45 -41.883,-93.334 -93.333,-93.334c-51.45,0 -93.333,41.884 -93.333,93.334Z" style="fill:#ba7800;"/><path d="M250,180c-25.784,0 -46.667,20.884 -46.667,46.667l23.333,-0c0,-12.833 10.5,-23.333 23.334,-23.333c12.833,-0 23.333,10.5 23.333,23.333c0,23.333 -35,20.417 -35,58.333l23.333,0c0,-26.25 35,-29.166 35,-58.333c0,-25.783 -20.883,-46.667 -46.666,-46.667Z" style="fill:#ba7800;fill-rule:nonzero;"/></svg>