<?xml version="1.0" encoding="UTF-8" standalone="no"?><!DOCTYPE svg PUBLIC "-//W3C//DTD SVG 1.1//EN" "http://www.w3.org/Graphics/SVG/1.1/DTD/svg11.dtd"><svg width="100%" height="100%" viewBox="0 0 280 280" version="1.1" xmlns="http://www.w3.org/2000/svg" xmlns:xlink="http://www.w3.org/1999/xlink" xml:space="preserve" xmlns:serif="http://www.serif.com/" style="fill-rule:evenodd;clip-rule:evenodd;stroke-linejoin:round;stroke-miterlimit:2;"><circle cx="139.583" cy="139.583" r="139.583" style="fill:#fbf3d7;"/><path d="M97.917,140.972l41.666,-37.5l41.667,37.5l-12.5,0l0,33.334l-25,-0l0,-25l-8.333,-0l-0,25l-25,-0l-0,-33.334l-12.5,0Zm54.166,25l8.334,0l-0,-32.541l-20.834,-18.75l-20.833,18.75l0,32.541l8.333,0l0,-25l25,0l0,25Z" style="fill:#ba7800;"/><path d="M118.75,133.431l-0,32.541l8.333,0l0,-25l25,0l0,25l8.333,0l0,-32.541l-20.833,-18.75l-20.833,18.75Z" style="fill:#ba7800;fill-opacity:0.5;fill-rule:nonzero;"/></svg>