<?xml version="1.0" encoding="UTF-8" standalone="no"?><!DOCTYPE svg PUBLIC "-//W3C//DTD SVG 1.1//EN" "http://www.w3.org/Graphics/SVG/1.1/DTD/svg11.dtd"><svg width="100%" height="100%" viewBox="0 0 100 100" version="1.1" xmlns="http://www.w3.org/2000/svg" xmlns:xlink="http://www.w3.org/1999/xlink" xml:space="preserve" xmlns:serif="http://www.serif.com/" style="fill-rule:evenodd;clip-rule:evenodd;stroke-linejoin:round;stroke-miterlimit:2;"><g id="_24---symbols---instagram" serif:id="24 / symbols / instagram"><path id="icon" d="M70,-0l-40,-0c-16.569,-0 -30,13.431 -30,30l-0,40c-0,16.569 13.431,30 30,30l40,0c16.569,0 30,-13.432 30,-30l0,-40c0,-16.569 -13.432,-30 -30,-30Zm-60,30c-0,-11.046 8.954,-20 20,-20l40,-0c11.046,-0 20,8.954 20,20l0,40c0,11.046 -8.954,20 -20,20l-40,0c-11.046,0 -20,-8.954 -20,-20l-0,-40Zm40,45c-13.807,0 -25,-11.193 -25,-25c-0,-13.807 11.193,-25 25,-25c13.807,-0 25,11.193 25,25c0,13.807 -11.193,25 -25,25Zm0,-10c8.284,0 15,-6.716 15,-15c0,-8.285 -6.716,-15 -15,-15c-8.285,0 -15,6.715 -15,15c0,8.284 6.715,15 15,15Zm30,-40c0,2.761 -2.239,5 -5,5c-2.761,-0 -5,-2.239 -5,-5c0,-2.761 2.239,-5 5,-5c2.761,-0 5,2.239 5,5Z" style="fill:#fff;"/></g></svg>