<?xml version="1.0" encoding="UTF-8" standalone="no"?><!DOCTYPE svg PUBLIC "-//W3C//DTD SVG 1.1//EN" "http://www.w3.org/Graphics/SVG/1.1/DTD/svg11.dtd"><svg width="100%" height="100%" viewBox="0 0 100 100" version="1.1" xmlns="http://www.w3.org/2000/svg" xmlns:xlink="http://www.w3.org/1999/xlink" xml:space="preserve" xmlns:serif="http://www.serif.com/" style="fill-rule:evenodd;clip-rule:evenodd;stroke-linejoin:round;stroke-miterlimit:2;"><g id="_24---symbols---linkedin" serif:id="24 / symbols / linkedin"><path id="icon" d="M10,-0l80,-0c5.523,-0 10,4.477 10,10l0,80c0,5.523 -4.477,10 -10,10l-80,0c-5.523,0 -10,-4.477 -10,-10l-0,-80c-0,-5.523 4.477,-10 10,-10Zm-0,10l-0,80l80,0l0,-80l-80,-0Zm45,25c-2.588,0 -5.323,0.791 -7.74,2.261l-2.26,-2.261l-5,0l0,35l10,0l0,-20c0,-2.879 2.97,-5 5,-5l5,0c2.03,0 5,2.121 5,5l0,20l10,0l0,-20c0,-9.264 -8.03,-15 -15,-15l-5,0Zm-25,-5c2.761,-0 5,-2.239 5,-5c0,-2.761 -2.239,-5 -5,-5c-2.761,-0 -5,2.239 -5,5c-0,2.761 2.239,5 5,5Zm-5,5l-0,35l10,0l0,-35l-10,0Z" style="fill:#fff;"/></g></svg>