<?xml version="1.0" encoding="UTF-8" standalone="no"?><!DOCTYPE svg PUBLIC "-//W3C//DTD SVG 1.1//EN" "http://www.w3.org/Graphics/SVG/1.1/DTD/svg11.dtd"><svg width="100%" height="100%" viewBox="0 0 500 500" version="1.1" xmlns="http://www.w3.org/2000/svg" xmlns:xlink="http://www.w3.org/1999/xlink" xml:space="preserve" xmlns:serif="http://www.serif.com/" style="fill-rule:evenodd;clip-rule:evenodd;stroke-linejoin:round;stroke-miterlimit:2;"><circle cx="250" cy="250" r="250" style="fill:#d3f1f1;"/><path d="M181.945,318.055l136.111,0l-0,-136.111l-136.111,0l-0,136.111Zm58.333,-116.666l58.333,-0l0,19.444l-58.333,0l-0,-19.444Zm58.333,38.889l-58.333,-0l-0,19.444l58.333,0l0,-19.445Zm-58.333,38.89l58.333,-0l0,19.444l-58.333,-0l-0,-19.444Zm-19.445,-77.778l-19.444,-0l0,19.444l19.444,0l0,-19.444Zm-19.444,38.889l19.444,-0l0,19.444l-19.444,0l0,-19.445Zm19.444,38.89l-19.444,-0l0,19.444l19.444,-0l0,-19.444Z" style="fill:#dadada;"/><rect x="240.278" y="201.389" width="58.333" height="19.444" style="fill:#828282;fill-rule:nonzero;"/><rect x="240.278" y="240.278" width="58.333" height="19.445" style="fill:#828282;fill-rule:nonzero;"/><rect x="240.278" y="279.167" width="58.333" height="19.445" style="fill:#828282;fill-rule:nonzero;"/><rect x="201.389" y="201.389" width="19.445" height="19.444" style="fill:#828282;fill-rule:nonzero;"/><rect x="201.389" y="240.278" width="19.445" height="19.445" style="fill:#828282;fill-rule:nonzero;"/><rect x="201.389" y="279.167" width="19.445" height="19.445" style="fill:#828282;fill-rule:nonzero;"/><path d="M171.25,162.5l157.5,0c3.889,0 8.75,3.889 8.75,8.75l0,157.5c0,3.889 -4.861,8.75 -8.75,8.75l-157.5,0c-4.861,0 -8.75,-4.861 -8.75,-8.75l0,-157.5c0,-4.861 3.889,-8.75 8.75,-8.75Zm10.695,155.555l136.11,0l0,-136.11l-136.11,-0l-0,136.11Z" style="fill:#828282;"/></svg>