<?xml version="1.0" encoding="UTF-8" standalone="no"?><!DOCTYPE svg PUBLIC "-//W3C//DTD SVG 1.1//EN" "http://www.w3.org/Graphics/SVG/1.1/DTD/svg11.dtd"><svg width="100%" height="100%" viewBox="0 0 267 267" version="1.1" xmlns="http://www.w3.org/2000/svg" xmlns:xlink="http://www.w3.org/1999/xlink" xml:space="preserve" xmlns:serif="http://www.serif.com/" style="fill-rule:evenodd;clip-rule:evenodd;stroke-linejoin:round;stroke-miterlimit:2;"><circle cx="133.333" cy="133.333" r="133.333" style="fill:#d3f1f1;"/><path d="M173.333,103.333l-80,0l40,24.95l40,-24.95Z" style="fill:#828282;fill-opacity:0.5;fill-rule:nonzero;"/><path d="M93.333,113.333l0,50l80,0l0,-50l-40,25l-40,-25Z" style="fill:#828282;fill-opacity:0.5;fill-rule:nonzero;"/><path d="M173.333,93.333l-80,0c-5.5,0 -10,4.5 -10,10l0,60c0,5.5 4.5,10 10,10l80,0c5.5,0 10,-4.5 10,-10l0,-60c0,-5.5 -4.5,-10 -10,-10Zm0,10l-40,24.95l-40,-24.95l80,0Zm-40,35l-40,-25l0,50l80,0l0,-50l-40,25Z" style="fill:#828282;"/></svg>