<?xml version="1.0" encoding="UTF-8" standalone="no"?><!DOCTYPE svg PUBLIC "-//W3C//DTD SVG 1.1//EN" "http://www.w3.org/Graphics/SVG/1.1/DTD/svg11.dtd"><svg width="100%" height="100%" viewBox="0 0 500 500" version="1.1" xmlns="http://www.w3.org/2000/svg" xmlns:xlink="http://www.w3.org/1999/xlink" xml:space="preserve" xmlns:serif="http://www.serif.com/" style="fill-rule:evenodd;clip-rule:evenodd;stroke-linejoin:round;stroke-miterlimit:2;"><circle cx="250" cy="250" r="250" style="fill:#d3f1f1;"/><path d="M325,193.75l-150,-0l75,46.781l75,-46.781Z" style="fill:#828282;fill-opacity:0.5;fill-rule:nonzero;"/><path d="M175,212.5l-0,93.75l150,0l0,-93.75l-75,46.875l-75,-46.875Z" style="fill:#828282;fill-opacity:0.5;fill-rule:nonzero;"/><path d="M325,175l-150,-0c-10.313,-0 -18.75,8.437 -18.75,18.75l-0,112.5c-0,10.313 8.437,18.75 18.75,18.75l150,0c10.313,0 18.75,-8.437 18.75,-18.75l0,-112.5c0,-10.313 -8.437,-18.75 -18.75,-18.75Zm0,18.75l-75,46.781l-75,-46.781l150,-0Zm-75,65.625l-75,-46.875l-0,93.75l150,0l0,-93.75l-75,46.875Z" style="fill:#828282;"/></svg>