<?xml version="1.0" encoding="UTF-8" standalone="no"?><!DOCTYPE svg PUBLIC "-//W3C//DTD SVG 1.1//EN" "http://www.w3.org/Graphics/SVG/1.1/DTD/svg11.dtd"><svg width="100%" height="100%" viewBox="0 0 500 500" version="1.1" xmlns="http://www.w3.org/2000/svg" xmlns:xlink="http://www.w3.org/1999/xlink" xml:space="preserve" xmlns:serif="http://www.serif.com/" style="fill-rule:evenodd;clip-rule:evenodd;stroke-linejoin:round;stroke-miterlimit:2;"><circle cx="249.304" cy="249.304" r="555.554" style="fill:#d3f1f1;"/><path d="M415.971,124.304l-333.333,0l166.666,103.958l166.667,-103.958Z" style="fill:#828282;fill-opacity:0.5;fill-rule:nonzero;"/><path d="M82.638,165.971l-0,208.333l333.333,0l-0,-208.333l-166.667,104.167l-166.666,-104.167Z" style="fill:#828282;fill-opacity:0.5;fill-rule:nonzero;"/><path d="M415.971,82.638l-333.333,-0c-22.917,-0 -41.667,18.75 -41.667,41.666l-0,250c-0,22.917 18.75,41.667 41.667,41.667l333.333,-0c22.917,-0 41.667,-18.75 41.667,-41.667l-0,-250c-0,-22.916 -18.75,-41.666 -41.667,-41.666Zm-0,41.666l-166.667,103.958l-166.666,-103.958l333.333,0Zm-166.667,145.834l-166.666,-104.167l-0,208.333l333.333,0l-0,-208.333l-166.667,104.167Z" style="fill:#828282;"/></svg>