<?xml version="1.0" encoding="UTF-8" standalone="no"?><!DOCTYPE svg PUBLIC "-//W3C//DTD SVG 1.1//EN" "http://www.w3.org/Graphics/SVG/1.1/DTD/svg11.dtd"><svg width="100%" height="100%" viewBox="0 0 500 500" version="1.1" xmlns="http://www.w3.org/2000/svg" xmlns:xlink="http://www.w3.org/1999/xlink" xml:space="preserve" xmlns:serif="http://www.serif.com/" style="fill-rule:evenodd;clip-rule:evenodd;stroke-linejoin:round;stroke-miterlimit:2;"><circle cx="250" cy="250" r="250" style="fill:#d3f1f1;"/><path d="M221.25,229.861c7.939,0 14.375,-6.436 14.375,-14.375c-0,-7.939 -6.436,-14.375 -14.375,-14.375c-7.939,0 -14.375,6.436 -14.375,14.375c-0,7.939 6.436,14.375 14.375,14.375Z" style="fill:#828282;fill-opacity:0.5;fill-rule:nonzero;"/><path d="M180.712,296.944l41.017,0c0.096,-0.575 1.15,-5.558 2.779,-9.487c-1.054,-0 -2.204,-0.096 -3.258,-0.096c-14.663,0 -31.146,4.792 -40.538,9.583Z" style="fill:#828282;fill-opacity:0.5;fill-rule:nonzero;"/><path d="M254.791,215.486c0,18.496 -15.045,33.542 -33.541,33.542c-18.496,-0 -33.542,-15.046 -33.542,-33.542c0,-18.496 15.046,-33.542 33.542,-33.542c18.496,0 33.541,15.046 33.541,33.542Zm-19.166,-0c-0,-7.954 -6.421,-14.375 -14.375,-14.375c-7.954,-0 -14.375,6.421 -14.375,14.375c-0,7.954 6.421,14.375 14.375,14.375c7.954,-0 14.375,-6.421 14.375,-14.375Z" style="fill:#828282;"/><path d="M221.729,296.944l-41.017,0c9.488,-4.791 25.875,-9.583 40.538,-9.583c1.054,-0 2.204,0.096 3.258,0.096c3.259,-6.996 8.913,-12.746 15.717,-17.346c-6.996,-1.246 -13.608,-1.917 -18.975,-1.917c-22.425,0 -67.083,11.213 -67.083,33.542l-0,14.375l67.083,-0l-0,-14.375c-0,-1.629 0.192,-3.258 0.479,-4.792Z" style="fill:#828282;fill-rule:nonzero;"/><path d="M293.125,272.986c-17.633,0 -52.708,9.679 -52.708,28.75l-0,14.375l105.416,0l0,-14.375c0,-19.071 -35.075,-28.75 -52.708,-28.75Z" style="fill:#828282;fill-rule:nonzero;"/><path d="M304.721,255.544c7.283,-4.121 12.362,-11.883 12.362,-20.891c0,-13.225 -10.733,-23.959 -23.958,-23.959c-13.225,0 -23.958,10.734 -23.958,23.959c-0,9.008 5.079,16.77 12.362,20.891c3.45,1.917 7.379,3.067 11.596,3.067c4.217,-0 8.146,-1.15 11.596,-3.067Z" style="fill:#828282;fill-rule:nonzero;"/></svg>