<?xml version="1.0" encoding="UTF-8" standalone="no"?><!DOCTYPE svg PUBLIC "-//W3C//DTD SVG 1.1//EN" "http://www.w3.org/Graphics/SVG/1.1/DTD/svg11.dtd"><svg width="100%" height="100%" viewBox="0 0 500 500" version="1.1" xmlns="http://www.w3.org/2000/svg" xmlns:xlink="http://www.w3.org/1999/xlink" xml:space="preserve" xmlns:serif="http://www.serif.com/" style="fill-rule:evenodd;clip-rule:evenodd;stroke-linejoin:round;stroke-miterlimit:2;"><circle cx="250" cy="250" r="250" style="fill:#fbf3d7;"/><path d="M215,226.667c9.665,0 17.5,-7.835 17.5,-17.5c0,-9.665 -7.835,-17.5 -17.5,-17.5c-9.665,0 -17.5,7.835 -17.5,17.5c0,9.665 7.835,17.5 17.5,17.5Z" style="fill:#ba7800;fill-opacity:0.5;fill-rule:nonzero;"/><path d="M165.65,308.334l49.933,-0c0.117,-0.7 1.4,-6.767 3.384,-11.55c-1.284,-0 -2.684,-0.117 -3.967,-0.117c-17.85,0 -37.917,5.833 -49.35,11.667Z" style="fill:#ba7800;fill-opacity:0.5;fill-rule:nonzero;"/><path d="M255.834,209.167c-0,22.516 -18.317,40.833 -40.834,40.833c-22.516,0 -40.833,-18.317 -40.833,-40.833c-0,-22.517 18.317,-40.834 40.833,-40.834c22.517,0 40.834,18.317 40.834,40.834Zm-23.334,-0c0,-9.684 -7.816,-17.5 -17.5,-17.5c-9.683,-0 -17.5,7.816 -17.5,17.5c0,9.683 7.817,17.5 17.5,17.5c9.684,-0 17.5,-7.817 17.5,-17.5Z" style="fill:#ba7800;"/><path d="M215.584,308.333l-49.934,0c11.55,-5.833 31.5,-11.666 49.35,-11.666c1.284,-0 2.684,0.116 3.967,0.116c3.967,-8.516 10.85,-15.516 19.133,-21.116c-8.516,-1.517 -16.566,-2.334 -23.1,-2.334c-27.3,0 -81.667,13.65 -81.667,40.834l0,17.5l81.667,-0l0,-17.5c0,-1.984 0.234,-3.967 0.584,-5.834Z" style="fill:#ba7800;fill-rule:nonzero;"/><path d="M302.5,279.167c-21.466,0 -64.166,11.783 -64.166,35l-0,17.5l128.333,0l-0,-17.5c-0,-23.217 -42.7,-35 -64.167,-35Z" style="fill:#ba7800;fill-rule:nonzero;"/><path d="M316.617,257.933c8.867,-5.016 15.05,-14.466 15.05,-25.433c-0,-16.1 -13.067,-29.167 -29.167,-29.167c-16.1,0 -29.166,13.067 -29.166,29.167c-0,10.967 6.183,20.417 15.05,25.433c4.2,2.334 8.983,3.734 14.116,3.734c5.134,-0 9.917,-1.4 14.117,-3.734Z" style="fill:#ba7800;fill-rule:nonzero;"/></svg>