<?xml version="1.0" encoding="UTF-8" standalone="no"?><!DOCTYPE svg PUBLIC "-//W3C//DTD SVG 1.1//EN" "http://www.w3.org/Graphics/SVG/1.1/DTD/svg11.dtd"><svg width="100%" height="100%" viewBox="0 0 267 267" version="1.1" xmlns="http://www.w3.org/2000/svg" xmlns:xlink="http://www.w3.org/1999/xlink" xml:space="preserve" xmlns:serif="http://www.serif.com/" style="fill-rule:evenodd;clip-rule:evenodd;stroke-linejoin:round;stroke-miterlimit:2;"><circle cx="133.333" cy="133.333" r="133.333" style="fill:#d3f1f1;"/><path d="M172.222,163.722c-4.889,-0.389 -9.722,-1.222 -14.444,-2.5l-6.611,6.611c6.666,2.278 13.778,3.723 21.111,4.167l-0,-8.278l-0.056,0Z" style="fill:#828282;fill-opacity:0.5;fill-rule:nonzero;"/><path d="M103,94.444l-8.333,0c0.5,7.334 1.944,14.389 4.166,21.111l6.667,-6.666c-1.333,-4.667 -2.167,-9.5 -2.5,-14.445Z" style="fill:#828282;fill-opacity:0.5;fill-rule:nonzero;"/><path d="M177.778,183.333c3.055,0 5.555,-2.5 5.555,-5.555l0,-19.389c0,-3.056 -2.5,-5.556 -5.555,-5.556c-6.889,0 -13.611,-1.111 -19.833,-3.166c-0.556,-0.222 -1.167,-0.278 -1.723,-0.278c-1.444,-0 -2.833,0.556 -3.944,1.611l-12.223,12.222c-15.722,-8.055 -28.61,-20.889 -36.61,-36.611l12.222,-12.222c1.555,-1.556 2,-3.722 1.388,-5.667c-2.055,-6.222 -3.166,-12.889 -3.166,-19.833c-0,-3.056 -2.5,-5.556 -5.556,-5.556l-19.444,0c-3.056,0 -5.556,2.5 -5.556,5.556c0,52.166 42.278,94.444 94.445,94.444Zm-20,-22.111c4.722,1.334 9.555,2.167 14.444,2.5l0,8.278c-7.333,-0.5 -14.389,-1.944 -21.111,-4.167l6.667,-6.611Zm-54.833,-66.777l-8.334,-0c0.5,7.333 1.944,14.388 4.222,21.055l6.667,-6.667c-1.333,-4.611 -2.167,-9.444 -2.555,-14.388Z" style="fill:#828282;"/></svg>