<?xml version="1.0" encoding="UTF-8" standalone="no"?><!DOCTYPE svg PUBLIC "-//W3C//DTD SVG 1.1//EN" "http://www.w3.org/Graphics/SVG/1.1/DTD/svg11.dtd"><svg width="100%" height="100%" viewBox="0 0 500 500" version="1.1" xmlns="http://www.w3.org/2000/svg" xmlns:xlink="http://www.w3.org/1999/xlink" xml:space="preserve" xmlns:serif="http://www.serif.com/" style="fill-rule:evenodd;clip-rule:evenodd;stroke-linejoin:round;stroke-miterlimit:2;"><circle cx="250" cy="250" r="250" style="fill:#d3f1f1;"/><path d="M322.917,306.98c-9.167,-0.73 -18.229,-2.292 -27.083,-4.688l-12.395,12.396c12.499,4.271 25.834,6.98 39.583,7.813l0,-15.521l-0.105,-0Z" style="fill:#828282;fill-opacity:0.5;fill-rule:nonzero;"/><path d="M193.125,177.083l-15.624,-0c0.938,13.751 3.645,26.979 7.811,39.583l12.501,-12.499c-2.499,-8.75 -4.063,-17.812 -4.688,-27.084Z" style="fill:#828282;fill-opacity:0.5;fill-rule:nonzero;"/><path d="M333.335,343.75c5.728,0 10.415,-4.687 10.415,-10.415l0,-36.355c0,-5.73 -4.687,-10.417 -10.415,-10.417c-12.917,-0 -25.521,-2.084 -37.187,-5.937c-1.043,-0.416 -2.189,-0.521 -3.231,-0.521c-2.708,0 -5.312,1.043 -7.395,3.021l-22.918,22.916c-29.479,-15.103 -53.644,-39.167 -68.644,-68.646l22.916,-22.916c2.916,-2.918 3.75,-6.979 2.603,-10.626c-3.853,-11.666 -5.937,-24.167 -5.937,-37.187c0,-5.73 -4.687,-10.417 -10.417,-10.417l-36.458,-0c-5.73,-0 -10.417,4.687 -10.417,10.417c-0,97.812 79.271,177.083 177.085,177.083Zm-37.501,-41.458c8.854,2.501 17.916,4.063 27.083,4.688l0,15.521c-13.749,-0.938 -26.979,-3.645 -39.583,-7.813l12.5,-12.396Zm-102.812,-125.207l-15.626,-0c0.938,13.749 3.645,26.977 7.916,39.478l12.501,-12.501c-2.499,-8.645 -4.063,-17.707 -4.791,-26.977Z" style="fill:#828282;"/></svg>