<?xml version="1.0" encoding="UTF-8" standalone="no"?><!DOCTYPE svg PUBLIC "-//W3C//DTD SVG 1.1//EN" "http://www.w3.org/Graphics/SVG/1.1/DTD/svg11.dtd"><svg width="100%" height="100%" viewBox="0 0 1113 1113" version="1.1" xmlns="http://www.w3.org/2000/svg" xmlns:xlink="http://www.w3.org/1999/xlink" xml:space="preserve" xmlns:serif="http://www.serif.com/" style="fill-rule:evenodd;clip-rule:evenodd;stroke-linejoin:round;stroke-miterlimit:2;"><circle cx="555.554" cy="555.554" r="555.554" style="fill:#fbf3d7;"/><path d="M717.592,682.175c-20.371,-1.621 -40.509,-5.092 -60.184,-10.417l-27.545,27.546c27.775,9.492 57.408,15.513 87.962,17.363l0,-34.492l-0.233,-0Z" style="fill:#ba7800;fill-opacity:0.5;fill-rule:nonzero;"/><path d="M429.167,393.517l-34.721,-0c2.083,30.558 8.1,59.954 17.358,87.962l27.779,-27.775c-5.554,-19.446 -9.029,-39.583 -10.416,-60.187Z" style="fill:#ba7800;fill-opacity:0.5;fill-rule:nonzero;"/><path d="M740.742,763.888c12.729,-0 23.146,-10.417 23.146,-23.146l-0,-80.788c-0,-12.733 -10.417,-23.15 -23.146,-23.15c-28.704,0 -56.713,-4.629 -82.638,-13.192c-2.316,-0.925 -4.862,-1.158 -7.179,-1.158c-6.017,0 -11.804,2.317 -16.433,6.713l-50.929,50.925c-65.509,-33.563 -119.209,-87.038 -152.542,-152.546l50.925,-50.925c6.479,-6.483 8.333,-15.509 5.783,-23.613c-8.562,-25.925 -13.192,-53.704 -13.192,-82.637c0,-12.733 -10.416,-23.15 -23.149,-23.15l-81.017,-0c-12.734,-0 -23.15,10.416 -23.15,23.15c-0,217.358 176.158,393.517 393.521,393.517Zm-83.334,-92.13c19.675,5.559 39.813,9.03 60.184,10.417l-0,34.492c-30.554,-2.084 -59.954,-8.1 -87.963,-17.363l27.779,-27.546Zm-228.47,-278.237l-34.725,-0c2.083,30.554 8.1,59.95 17.591,87.729l27.779,-27.779c-5.554,-19.213 -9.029,-39.35 -10.645,-59.95Z" style="fill:#ba7800;"/></svg>