<?xml version="1.0" encoding="UTF-8" standalone="no"?><!DOCTYPE svg PUBLIC "-//W3C//DTD SVG 1.1//EN" "http://www.w3.org/Graphics/SVG/1.1/DTD/svg11.dtd"><svg width="100%" height="100%" viewBox="0 0 280 280" version="1.1" xmlns="http://www.w3.org/2000/svg" xmlns:xlink="http://www.w3.org/1999/xlink" xml:space="preserve" xmlns:serif="http://www.serif.com/" style="fill-rule:evenodd;clip-rule:evenodd;stroke-linejoin:round;stroke-miterlimit:2;"><circle cx="139.583" cy="139.583" r="139.583" style="fill:#fbf3d7;"/><path d="M123.008,140.937c-0,-0.054 -0,-0.054 -0,-0c-0.704,-0.488 -1.463,-0.921 -2.167,-1.408c0.704,0.541 1.463,0.92 2.167,1.408Z" style="fill:#ba7800;fill-opacity:0.5;fill-rule:nonzero;"/><path d="M146.894,121.059c-1.191,-6.554 -3.575,-12.729 -7.041,-18.308c-3.575,5.633 -6.067,11.862 -7.421,18.362c2.492,1.625 4.875,3.359 7.204,5.254c2.275,-1.895 4.712,-3.683 7.258,-5.308Z" style="fill:#ba7800;fill-opacity:0.5;fill-rule:nonzero;"/><path d="M164.173,148.574l0.054,0.108c-0.487,0.325 -0.975,0.65 -1.462,0.921l-0.379,0.27c-5.308,3.846 -9.967,8.721 -13.704,14.409l-9.1,13.758l-9.046,-13.813c-3.683,-5.578 -8.233,-10.399 -13.595,-14.354l-0.379,-0.216c-0.704,-0.434 -1.408,-0.867 -2.113,-1.354l0.055,-0.054c-5.2,-3.413 -10.888,-5.796 -16.9,-7.204c4.062,18.199 17.116,33.42 34.937,39.811c2.275,0.813 4.55,1.463 6.933,1.95c2.437,-0.487 4.82,-1.137 7.204,-2.004c17.712,-6.337 30.712,-21.558 34.828,-39.757c-6.175,1.408 -12.079,3.954 -17.333,7.529Z" style="fill:#ba7800;fill-opacity:0.5;fill-rule:nonzero;"/><path d="M123.007,140.939c6.5,4.658 12.134,10.562 16.575,17.333c11.646,-17.767 31.524,-29.52 54.165,-29.52c0,28.815 -18.199,53.19 -43.494,62.236c-3.467,1.191 -6.988,2.112 -10.671,2.762c-3.683,-0.596 -7.258,-1.517 -10.671,-2.762c-25.295,-9.046 -43.494,-33.421 -43.494,-62.236c14.029,-0 26.974,4.495 37.536,12.132c-0.282,-0.188 -0.584,-0.376 -0.894,-0.568c-0.404,-0.251 -0.819,-0.51 -1.218,-0.786c0.408,0.315 0.836,0.574 1.26,0.832c0.306,0.187 0.611,0.372 0.906,0.577Zm16.521,41.815c2.437,-0.541 4.82,-1.191 7.204,-2.004c17.712,-6.337 30.711,-21.558 34.774,-39.811c-6.175,1.462 -12.079,4.062 -17.387,7.583l0.054,0.108c-0.488,0.325 -0.975,0.65 -1.463,0.921l-0.379,0.271c-5.308,3.846 -9.966,8.72 -13.703,14.408l-9.046,13.812l-9.046,-13.866c-3.629,-5.634 -8.233,-10.454 -13.595,-14.354l-0.38,-0.217c-0.704,-0.379 -1.408,-0.866 -2.112,-1.354l0.108,-0.054c-5.254,-3.358 -10.941,-5.796 -16.899,-7.204c4.062,18.199 17.116,33.42 34.937,39.811c2.22,0.813 4.549,1.463 6.933,1.95Z" style="fill:#ba7800;"/><path d="M139.907,85.417c11.483,11.483 17.604,26.216 18.579,41.328c-6.933,3.737 -13.324,8.504 -18.904,14.245c-5.579,-5.795 -11.97,-10.562 -18.903,-14.245c1.246,-15.004 7.637,-29.737 19.228,-41.328Zm6.987,35.587c-1.246,-6.5 -3.629,-12.729 -7.041,-18.308c-3.575,5.633 -6.067,11.863 -7.421,18.362c2.492,1.625 4.929,3.413 7.204,5.254c2.329,-1.895 4.712,-3.683 7.258,-5.308Z" style="fill:#ba7800;"/><path d="M123.278,141.1c-0.108,-0.054 -0.216,-0.162 -0.271,-0.216c0,-0 0.055,-0 0.055,0.054c0.054,0.054 0.108,0.108 0.216,0.162Z" style="fill:#ba7800;fill-opacity:0.5;fill-rule:nonzero;"/></svg>