<?xml version="1.0" encoding="UTF-8" standalone="no"?><!DOCTYPE svg PUBLIC "-//W3C//DTD SVG 1.1//EN" "http://www.w3.org/Graphics/SVG/1.1/DTD/svg11.dtd"><svg width="100%" height="100%" viewBox="0 0 209 209" version="1.1" xmlns="http://www.w3.org/2000/svg" xmlns:xlink="http://www.w3.org/1999/xlink" xml:space="preserve" xmlns:serif="http://www.serif.com/" style="fill-rule:evenodd;clip-rule:evenodd;stroke-linejoin:round;stroke-miterlimit:2;"><path d="M208.333,25c0,-13.798 -11.202,-25 -25,-25l-158.333,-0c-13.798,-0 -25,11.202 -25,25l0,158.333c0,13.798 11.202,25 25,25l158.333,0c13.798,0 25,-11.202 25,-25l0,-158.333Zm-104.166,37.5c22.996,0 41.666,18.67 41.666,41.667c0,22.996 -18.67,41.666 -41.666,41.666c-22.997,0 -41.667,-18.67 -41.667,-41.666c0,-22.997 18.67,-41.667 41.667,-41.667Z" style="fill:#185d6f;"/><path d="M101.925,81.785c0.346,-0.939 1.241,-1.563 2.242,-1.563c1.001,0 1.895,0.624 2.242,1.563c2.218,6.017 5.285,14.335 5.285,14.335c0,-0 8.73,0.341 15.127,0.591c1.021,0.04 1.91,0.713 2.226,1.685c0.316,0.973 -0.008,2.039 -0.811,2.672c-5.027,3.962 -11.89,9.37 -11.89,9.37c0,-0 2.373,8.408 4.112,14.569c0.278,0.984 -0.087,2.037 -0.914,2.638c-0.828,0.601 -1.942,0.623 -2.792,0.055c-5.322,-3.558 -12.585,-8.413 -12.585,-8.413c-0,0 -7.264,4.855 -12.586,8.413c-0.85,0.568 -1.964,0.546 -2.791,-0.055c-0.828,-0.601 -1.193,-1.654 -0.915,-2.638c1.739,-6.161 4.112,-14.569 4.112,-14.569c-0,-0 -6.862,-5.408 -11.89,-9.37c-0.803,-0.633 -1.127,-1.699 -0.811,-2.672c0.316,-0.972 1.205,-1.645 2.227,-1.685c6.396,-0.25 15.126,-0.591 15.126,-0.591c0,-0 3.067,-8.318 5.286,-14.335Z" style="fill:#185d6f;"/></svg>