<?xml version="1.0" encoding="UTF-8" standalone="no"?><!DOCTYPE svg PUBLIC "-//W3C//DTD SVG 1.1//EN" "http://www.w3.org/Graphics/SVG/1.1/DTD/svg11.dtd"><svg width="100%" height="100%" viewBox="0 0 84 80" version="1.1" xmlns="http://www.w3.org/2000/svg" xmlns:xlink="http://www.w3.org/1999/xlink" xml:space="preserve" xmlns:serif="http://www.serif.com/" style="fill-rule:evenodd;clip-rule:evenodd;stroke-linejoin:round;stroke-miterlimit:2;"><g id="_24---symbols---twitter" serif:id="24 / symbols / twitter"><path id="icon" d="M79.665,10.451l5.895,0.689l-2.65,5.31c-1.292,2.59 -2.586,5.179 -3.881,7.769c-0.153,0.549 -0.423,1.029 -0.822,1.655c-0.167,0.262 -0.737,1.094 -0.763,1.134c-0.151,0.226 -0.262,0.404 -0.342,0.546l0,9.952c0,25.467 -24.646,41.65 -47.921,41.65c-4.762,-0 -8.381,-0.228 -12.524,-1.132c-6.819,-1.489 -11.893,-4.446 -14.215,-9.616l-2.391,-5.322l5.81,-0.534c5.256,-0.484 9.813,-1.485 13.312,-2.826c-9.607,-1.545 -14.991,-5.764 -14.991,-13.689l-0,-4.167l4.166,0c0.916,0 1.741,-0.074 2.479,-0.21c-7.21,-4.312 -10.822,-11.228 -10.822,-20.82c-0.001,-0.409 -0.001,-0.409 -0.003,-0.846c-0.027,-4.836 0.232,-7.419 1.556,-10.717c0.848,-2.113 2.075,-4.069 3.725,-5.862l3.144,-3.415l3.057,3.494c10.074,11.513 20.032,18.497 30.2,19.342c0.044,-10.623 8.072,-18.663 18.751,-18.663c4.978,0 9.493,1.89 13.042,5.297c1.942,0.399 4.005,0.726 6.188,0.981Zm-9.212,6.891l-1.278,-0.289l-0.882,-0.968c-2.133,-2.341 -4.81,-3.579 -7.858,-3.579c-6.096,0 -10.418,4.344 -10.418,10.417c0,0.993 -0.025,1.616 -0.149,2.436c-0.493,3.271 -2.328,5.897 -6.101,5.897c-12.492,0 -23.761,-6.692 -34.751,-18.121c-0.566,1.722 -0.7,3.492 -0.681,6.812c0.003,0.444 0.003,0.444 0.003,0.893c0,8.533 3.458,13.201 11.643,15.803l2.905,0.923l-0,3.047c-0,3.696 -3.502,7.175 -8.625,8.733c2.349,1.782 7.152,2.744 14.922,2.744l4.167,-0l-0,4.166c-0,5.97 -6.86,10.644 -17.222,13.085c3.379,1.035 7.879,1.481 13.053,1.481c19.227,0.001 39.588,-13.369 39.588,-33.316l-0,-10.416c-0,-1.224 0.355,-2.287 0.944,-3.392c0.231,-0.432 0.485,-0.843 0.797,-1.313c0.06,-0.089 0.278,-0.409 0.452,-0.665l0.33,-0.66c0.536,-1.071 1.07,-2.141 1.605,-3.211c-0.831,-0.157 -1.646,-0.326 -2.444,-0.507Z" style="fill:#fff;"/></g></svg>