<?xml version="1.0" encoding="UTF-8" standalone="no"?><!DOCTYPE svg PUBLIC "-//W3C//DTD SVG 1.1//EN" "http://www.w3.org/Graphics/SVG/1.1/DTD/svg11.dtd"><svg width="100%" height="100%" viewBox="0 0 50 50" version="1.1" xmlns="http://www.w3.org/2000/svg" xmlns:xlink="http://www.w3.org/1999/xlink" xml:space="preserve" xmlns:serif="http://www.serif.com/" style="fill-rule:evenodd;clip-rule:evenodd;stroke-linejoin:round;stroke-miterlimit:2;"><path d="M45.101,34.097l-7.07,-0.808c-1.698,-0.194 -3.368,0.39 -4.565,1.587l-5.121,5.121c-7.877,-4.008 -14.335,-10.437 -18.343,-18.342l5.149,-5.15c1.197,-1.196 1.782,-2.866 1.587,-4.564l-0.807,-7.014c-0.334,-2.812 -2.7,-4.927 -5.539,-4.927l-4.816,-0c-3.145,-0 -5.761,2.616 -5.566,5.762c1.475,23.77 20.485,42.753 44.228,44.228c3.145,0.195 5.762,-2.422 5.762,-5.567l-0,-4.815c0.027,-2.812 -2.088,-5.177 -4.899,-5.511Z" style="fill:#fff;fill-rule:nonzero;"/></svg>