<?xml version="1.0" encoding="UTF-8" standalone="no"?><!DOCTYPE svg PUBLIC "-//W3C//DTD SVG 1.1//EN" "http://www.w3.org/Graphics/SVG/1.1/DTD/svg11.dtd"><svg width="100%" height="100%" viewBox="0 0 1092 863" version="1.1" xmlns="http://www.w3.org/2000/svg" xmlns:xlink="http://www.w3.org/1999/xlink" xml:space="preserve" xmlns:serif="http://www.serif.com/" style="fill-rule:evenodd;clip-rule:evenodd;stroke-linejoin:round;stroke-miterlimit:2;"><g><path d="M853.321,268.85c-8.763,0 -17.417,0.479 -25.929,1.413c20.533,50.162 31.85,105.07 31.85,162.62c-0,61.879 -13.088,120.713 -36.638,173.863c42.629,27.337 67.221,78.241 58.559,131.308c116.891,-13.775 207.574,-113.192 207.574,-233.787c0,-130.017 -105.399,-235.417 -235.416,-235.417Z" style="fill:#fcda14;fill-rule:nonzero;"/><path d="M429.617,3.263c-237.275,-0 -429.617,192.35 -429.617,429.62c0,237.271 192.342,429.617 429.617,429.617c81.187,0 157.112,-22.521 221.875,-61.654c-23.63,-28.346 -35.196,-66.463 -28.55,-105.704c4.258,-25.184 15.441,-47.45 31.279,-65.2c-23.004,-36.367 -36.317,-79.467 -36.317,-125.675c0,-121.255 91.671,-221.1 209.488,-234.004c-64.109,-156.646 -218.059,-267 -397.775,-267Z" style="fill:#22c4f4;fill-rule:nonzero;"/><path d="M827.392,270.263c-117.817,12.904 -209.488,112.749 -209.488,234.004c0,46.208 13.313,89.308 36.317,125.675c24.333,-27.275 59.625,-43.863 97.604,-43.863c7.25,0 14.613,0.609 22.004,1.863c17.925,3.033 34.379,9.575 48.775,18.804c23.55,-53.15 36.638,-111.984 36.638,-173.863c-0,-57.55 -11.317,-112.458 -31.85,-162.62Z" style="fill:#21a84a;fill-rule:nonzero;"/><path d="M752.025,716.838c-28.958,32.854 -62.85,61.241 -100.533,84.008c19.287,23.141 46.62,39.771 78.646,45.192c7.391,1.249 14.741,1.854 21.995,1.854c62.696,-0 118.092,-45.179 128.896,-109.059c0.046,-0.262 0.088,-0.516 0.134,-0.779c-9.134,1.075 -18.421,1.629 -27.842,1.629c-36.267,0 -70.609,-8.2 -101.296,-22.845Z" style="fill:#f7942d;fill-rule:nonzero;"/><path d="M822.604,606.746c-17.875,40.341 -41.787,77.425 -70.579,110.092c30.687,14.645 65.029,22.845 101.296,22.845c9.421,0 18.708,-0.554 27.842,-1.629c8.662,-53.067 -15.93,-103.971 -58.559,-131.308Z" style="fill:#f57f1f;fill-rule:nonzero;"/><path d="M654.221,629.942c-15.838,17.75 -27.021,40.016 -31.279,65.2c-6.646,39.241 4.92,77.358 28.55,105.704c37.683,-22.767 71.575,-51.154 100.533,-84.008c-40.221,-19.205 -74.146,-49.488 -97.804,-86.896Z" style="fill:#207339;fill-rule:nonzero;"/><path d="M751.825,586.079c-37.979,0 -73.271,16.588 -97.604,43.863c23.658,37.408 57.583,67.691 97.804,86.896c28.792,-32.667 52.704,-69.751 70.579,-110.092c-14.396,-9.229 -30.85,-15.771 -48.775,-18.804c-7.391,-1.254 -14.754,-1.863 -22.004,-1.863Z" style="fill:#256331;fill-rule:nonzero;"/><path d="M108.183,375.846l18.625,-0l28.567,-123.179l-21.104,-0l4.462,-20.117l65.071,-0l-4.721,20.117l-21.108,-0l-28.813,123.425l50.917,-0l5.713,-24.088l21.608,0l-10.183,43.958l-113.742,0l4.708,-20.116Z" style="fill:#fff;fill-rule:nonzero;"/><path d="M256.208,256.396c0,-7.946 6.455,-14.409 14.409,-14.409c7.691,0 14.4,6.463 14.4,14.409c-0,7.946 -6.709,14.404 -14.4,14.404c-7.954,0 -14.409,-6.458 -14.409,-14.404Zm-20.862,119.696c-0,-3.217 0.75,-7.938 1.742,-11.663l14.9,-57.121l-20.117,0l4.721,-18.379l41.971,0l-19.871,75.742c-1.238,4.229 -1.742,8.45 -1.742,10.929c-0,4.721 2.487,7.454 6.458,7.454c4.967,0 9.446,-3.725 14.659,-17.383l9.679,3.475c-6.45,21.358 -16.888,28.562 -30.046,28.562c-14.413,0 -22.354,-8.691 -22.354,-21.616Z" style="fill:#fff;fill-rule:nonzero;"/><path d="M304.633,307.308l-18.621,0l4.717,-18.379l32.783,0l12.417,85.184c19.113,-20.613 33.034,-41.725 37.25,-58.109c-5.462,-1.996 -10.429,-6.712 -10.429,-14.158c-0,-8.196 6.463,-14.904 14.904,-14.904c9.434,-0 16.384,7.204 16.384,19.121c-0,22.604 -23.338,58.366 -58.109,92.887l-14.162,0l-17.134,-91.642Z" style="fill:#fff;fill-rule:nonzero;"/><path d="M427.571,256.396c-0,-7.946 6.462,-14.409 14.4,-14.409c7.708,0 14.408,6.463 14.408,14.409c0,7.946 -6.7,14.404 -14.408,14.404c-7.938,0 -14.4,-6.458 -14.4,-14.404Zm-20.858,119.696c-0,-3.217 0.737,-7.938 1.733,-11.663l14.904,-57.121l-20.108,0l4.704,-18.379l41.975,0l-19.867,75.742c-1.237,4.229 -1.737,8.45 -1.737,10.929c-0,4.721 2.487,7.454 6.462,7.454c4.963,0 9.429,-3.725 14.646,-17.383l9.692,3.475c-6.455,21.358 -16.888,28.562 -30.055,28.562c-14.408,0 -22.349,-8.691 -22.349,-21.616Z" style="fill:#fff;fill-rule:nonzero;"/><path d="M532.871,376.346c-0,-3.471 0.75,-8.192 1.746,-12.171l9.179,-32.279c1.246,-4.225 1.742,-7.454 1.742,-10.933c-0,-9.438 -6.459,-15.642 -16.142,-15.642c-13.167,-0 -25.579,11.175 -31.046,32.537l-14.404,58.104l-21.858,0l22.358,-88.654l-19.871,0l4.717,-18.379l38.254,0l-5.721,25.079c8.446,-14.9 22.358,-26.816 37.008,-26.816c16.384,-0 29.059,11.175 29.059,30.3c-0,5.216 -0.996,11.175 -2.734,17.383l-9.187,31.538c-0.754,3.233 -1.496,6.708 -1.496,8.691c0,4.971 2.492,7.95 6.708,7.95c4.221,0 8.942,-3.725 13.904,-17.383l9.692,3.475c-5.708,19.371 -15.896,28.562 -29.058,28.562c-14.654,0 -22.85,-8.95 -22.85,-21.362Z" style="fill:#fff;fill-rule:nonzero;"/><path d="M670.217,331.642c-0,-15.888 -10.43,-25.579 -25.838,-25.579c-20.854,-0 -36.746,19.87 -36.746,44.208c0,15.896 10.434,25.821 25.325,25.821c21.363,-0 37.259,-21.354 37.259,-44.45Zm-86.675,101.571c-4.721,-4.709 -6.209,-8.684 -6.209,-13.896c0,-8.696 5.954,-14.659 13.659,-14.659c7.7,0 13.162,6.213 13.162,13.417c0,2.225 -0.5,4.713 -1.491,6.454c3.229,1.983 9.687,3.975 17.879,3.975c10.183,0 17.391,-2.733 23.591,-8.946c5.717,-5.458 9.188,-14.154 11.921,-25.825l4.725,-20.121c-9.192,12.921 -22.108,21.113 -36.754,21.113c-24.1,0 -39,-17.142 -39,-42.963c0,-34.766 24.096,-64.82 56.629,-64.82c18.383,-0 29.304,12.412 33.029,24.333l6.705,-22.842l20.112,0l-25.575,110.263c-3.225,14.408 -7.7,25.087 -15.642,33.279c-9.441,9.196 -21.858,13.658 -39.246,13.658c-14.895,0 -31.037,-5.958 -37.495,-12.42Z" style="fill:#fff;fill-rule:nonzero;"/><path d="M245.279,439.362l-17.633,0l4.716,-20.112l60.105,0l-4.471,20.112l-20.613,0l4.967,102.817l60.596,-105.05l10.679,0l18.129,105.542l50.171,-103.309l-19.871,0l4.467,-20.112l60.35,0l-4.717,20.112l-15.646,0l-74.258,145.038l-12.171,-0l-19.612,-104.058l-62.834,104.058l-11.925,0.254l-10.429,-145.292Z" style="fill:#fff;fill-rule:nonzero;"/><path d="M496.117,519.083c-0,-15.891 -7.946,-26.329 -24.33,-26.329c-20.866,0 -36.508,22.604 -36.508,46.696c0,15.642 7.692,26.575 22.6,26.575c21.85,0 38.238,-23.592 38.238,-46.942Zm-83.438,22.855c0,-36.513 25.325,-68.301 56.371,-68.301c16.142,0 28.312,11.675 32.042,25.33l6.95,-23.842l20.358,-0l-18.867,76.242c-1.25,4.479 -1.987,8.45 -1.987,10.929c-0,4.717 2.237,7.45 6.45,7.45c3.979,-0 8.946,-3.721 13.912,-17.383l9.684,3.483c-6.455,21.354 -17.634,28.554 -29.55,28.554c-12.667,-0 -20.613,-8.692 -20.613,-21.6l0,-1.25c-9.191,12.671 -22.1,23.104 -38.246,23.104c-21.362,0 -36.504,-16.642 -36.504,-42.716Z" style="fill:#fff;fill-rule:nonzero;"/><path d="M626.763,518.346c-0,-15.904 -10.438,-25.592 -25.834,-25.592c-20.867,0 -36.758,19.871 -36.758,44.209c-0,15.895 10.425,25.837 25.329,25.837c21.358,-0 37.263,-21.358 37.263,-44.454Zm-86.684,101.571c-4.717,-4.721 -6.208,-8.688 -6.208,-13.909c-0,-8.691 5.967,-14.658 13.662,-14.658c7.696,0 13.159,6.213 13.159,13.413c-0,2.241 -0.492,4.725 -1.492,6.466c3.233,1.979 9.688,3.967 17.883,3.967c10.184,-0 17.384,-2.733 23.596,-8.946c5.709,-5.463 9.188,-14.15 11.921,-25.821l4.717,-20.121c-9.192,12.921 -22.1,21.113 -36.754,21.113c-24.088,-0 -38.992,-17.138 -38.992,-42.958c-0,-34.775 24.092,-64.826 56.621,-64.826c18.383,0 29.312,12.417 33.029,24.346l6.712,-22.858l20.117,-0l-25.583,110.267c-3.225,14.404 -7.696,25.091 -15.646,33.283c-9.442,9.183 -21.854,13.654 -39.242,13.654c-14.892,0 -31.037,-5.954 -37.5,-12.412Z" style="fill:#fff;fill-rule:nonzero;"/><path d="M682.142,520.329l55.625,0c0.991,-2.979 1.496,-6.216 1.496,-9.196c-0,-11.171 -7.459,-19.366 -22.855,-19.366c-15.396,-0 -28.562,11.67 -34.266,28.562Zm-2.984,15.65l0,3.717c0,16.15 12.917,26.825 32.279,26.825c11.425,-0 21.859,-2.483 35.275,-9.684l-4.224,20.363c-11.171,5.462 -20.367,7.454 -35.517,7.454c-25.579,0 -49.171,-16.15 -49.171,-45.454c-0,-36.258 26.817,-65.563 58.608,-65.563c26.08,0 43.221,14.905 43.221,39.98c0,6.712 -1.246,14.158 -3.987,22.362l-76.484,0Z" style="fill:#fff;fill-rule:nonzero;"/><path d="M370.433,727.392l10.063,-0l15.641,-67.659l-11.275,0l1.455,-6.058l57.229,-0l-4.242,18.062l-6.671,0l2.788,-12.004l-32.371,0l-6.913,29.95l26.434,0l-1.333,6.063l-26.434,-0l-7.396,31.646l32.375,-0l2.788,-12.004l6.671,-0l-4.125,18.066l-56.138,0l1.454,-6.062Z" style="fill:#fff;fill-rule:nonzero;"/><path d="M449.842,688.108l-9.7,0l1.454,-5.579l15.641,0l-3.27,12.246c4.97,-8.004 11.275,-13.212 18.183,-13.212c7.883,-0 12.975,4.724 13.217,12.729c4.97,-7.759 11.641,-12.729 18.308,-12.729c8.004,-0 13.454,5.695 13.454,13.212c0,2.55 -0.725,5.338 -1.45,8l-5.212,17.829c-0.488,1.696 -0.85,4 -0.85,4.967c-0,2.425 1.575,4.004 3.758,4.004c2.667,-0 4.729,-2.425 7.029,-8.004l3.759,1.212c-2.425,7.154 -6.059,11.396 -11.638,11.396c-5.333,0 -9.213,-3.512 -9.213,-8.608c0,-1.333 0.484,-3.879 0.967,-5.575l5.213,-18.067c0.729,-2.666 1.212,-4.729 1.212,-6.912c0,-4.604 -3.029,-8 -8,-8c-7.275,-0 -16.366,7.883 -20.125,22.308l-6.304,24.129l-6.308,0l8.125,-31.525c0.729,-2.666 1.212,-4.729 1.212,-6.912c0,-4.604 -3.15,-8 -8.125,-8c-7.15,-0 -16.85,8 -20.367,22.187l-6.062,24.25l-6.304,0l11.396,-45.346Z" style="fill:#fff;fill-rule:nonzero;"/><path d="M575.679,703.75c0,-10.062 -5.212,-16.492 -13.941,-16.492c-12.126,0 -21.705,14.304 -21.705,26.192c0,8.85 5.7,15.275 15.159,15.275c12,0 20.487,-12.367 20.487,-24.975Zm-59.167,47.892l7.88,-0l15.279,-63.534l-9.7,0l1.337,-5.579l15.638,0l-2.304,9.821c4.121,-5.817 10.183,-10.787 18.187,-10.787c11.034,-0 19.642,8.362 19.642,21.458c-0,17.821 -13.217,31.4 -27.163,31.4c-8.483,-0 -15.4,-4.729 -17.575,-12.242l-6.916,29.463l11.158,-0l-1.333,5.575l-25.459,-0l1.329,-5.575Z" style="fill:#fff;fill-rule:nonzero;"/><path d="M589.979,725.571c0,-1.333 0.483,-3.271 0.846,-5.092l16.371,-70.2l-9.579,0l1.333,-5.575l15.883,0l-17.7,75.775c-0.366,1.821 -0.854,4.125 -0.854,5.092c0,2.425 1.579,4.004 3.763,4.004c2.662,-0 4.729,-2.425 7.029,-8.004l3.762,1.212c-2.425,7.154 -6.062,11.396 -11.641,11.396c-5.338,0 -9.213,-3.512 -9.213,-8.608Z" style="fill:#fff;fill-rule:nonzero;"/><path d="M659.808,703.263c0,-9.7 -6.545,-16.005 -15.275,-16.005c-12.366,0 -22.066,11.879 -22.066,25.463c-0,9.696 6.545,16.004 15.279,16.004c12.362,0 22.062,-11.883 22.062,-25.462Zm-43.766,9.337c-0,-16.125 12.487,-31.037 28.854,-31.037c13.458,-0 21.337,9.937 21.337,21.82c0,16.125 -12.487,31.038 -28.854,31.038c-13.458,-0 -21.337,-9.942 -21.337,-21.821Z" style="fill:#fff;fill-rule:nonzero;"/><path d="M656.163,751.642c-0,-2.792 2.062,-5.459 5.091,-5.459c3.034,0 4.85,2.184 5.096,5.575l0.604,0c2.913,0 9.459,-4.604 20.733,-18.429l-9.095,-45.221l-9.454,0l1.333,-5.579l13.821,0l8.125,44.738c9.7,-12.609 19.4,-26.309 21.095,-34.43c-2.425,-0.729 -4.97,-2.787 -4.97,-6.066c-0,-2.663 2.304,-5.208 5.454,-5.208c3.275,-0 5.942,2.425 5.942,7.15c-0,8.85 -7.396,20.733 -26.067,44.495c-15.279,19.525 -23.279,24.492 -30.429,24.492c-3.638,-0 -7.279,-2.542 -7.279,-6.058Z" style="fill:#fff;fill-rule:nonzero;"/><path d="M729.992,704.354l32.495,0c0.609,-1.816 0.967,-3.879 0.967,-5.817c0,-5.7 -3.875,-11.279 -13.091,-11.279c-8.971,0 -17.217,7.275 -20.371,17.096Zm-1.213,5.334c-0.117,1.091 -0.117,2.183 -0.117,3.275c0,10.55 8.605,15.883 17.217,15.883c5.942,-0 10.184,-1.213 16.729,-4.729l-1.454,6.55c-5.337,2.662 -9.696,3.754 -16.367,3.754c-11.762,-0 -22.433,-7.638 -22.433,-21.338c0,-17.216 13.463,-31.52 28.496,-31.52c11.517,-0 18.546,7.274 18.546,18.062c-0,3.15 -0.725,6.425 -2.059,10.063l-38.558,-0Z" style="fill:#fff;fill-rule:nonzero;"/><path d="M786.488,688.108l-9.696,0l1.45,-5.579l15.641,0l-3.391,13.821c6.787,-9.333 12.487,-14.787 17.216,-14.787c4,-0 6.179,2.299 6.179,5.333c0,3.275 -2.666,5.941 -5.695,5.941c-2.788,0 -4.73,-1.699 -5.334,-4.124c-4.125,2.425 -12.975,10.424 -15.883,22.429l-5.579,22.312l-6.309,0l11.401,-45.346Z" style="fill:#fff;fill-rule:nonzero;"/><path d="M230.063,135.392l-8.488,-0l1.458,-6.063l24.492,0l-1.458,6.063l-9.942,-0l1.7,62.562l33.1,-58.321l2.908,0l6.667,58.442l32.979,-62.683l-9.7,-0l1.454,-6.063l24.371,0l-1.454,6.063l-8.004,-0l-39.888,75.05l-3.879,-0l-7.033,-56.621l-32.734,56.621l-3.879,-0l-2.67,-75.05Z" style="fill:#fff;fill-rule:nonzero;"/><path d="M320.254,180.008l32.496,0c0.604,-1.816 0.971,-3.879 0.971,-5.821c-0,-5.695 -3.884,-11.275 -13.096,-11.275c-8.971,0 -17.217,7.276 -20.371,17.096Zm-1.212,5.338c-0.121,1.087 -0.121,2.179 -0.121,3.271c-0,10.55 8.608,15.883 17.216,15.883c5.942,0 10.188,-1.212 16.734,-4.729l-1.454,6.546c-5.338,2.666 -9.7,3.762 -16.371,3.762c-11.759,0 -22.429,-7.641 -22.429,-21.342c-0,-17.216 13.458,-31.52 28.491,-31.52c11.517,-0 18.55,7.271 18.55,18.062c0,3.154 -0.725,6.429 -2.058,10.067l-38.558,-0Z" style="fill:#fff;fill-rule:nonzero;"/><path d="M427.425,178.192c0,-9.096 -4.85,-15.28 -14.067,-15.28c-12.246,0 -20.733,12.734 -20.733,25.946c0,9.459 4.608,15.521 13.337,15.521c13.217,0 21.463,-14.791 21.463,-26.187Zm-41.588,10.787c0,-17.333 12.609,-31.762 27.276,-31.762c9.216,-0 15.279,5.091 16.737,13.216l3.029,-12.854l6.304,0l-9.454,38.8c-0.487,1.938 -0.85,3.879 -0.85,4.846c0,2.425 1.575,4.004 3.759,4.004c2.666,0 4.729,-2.425 7.033,-8.004l3.758,1.212c-2.425,7.155 -6.062,11.4 -11.642,11.4c-5.333,0 -8.97,-3.395 -8.97,-8.125l-0,-2.062c-4.488,5.942 -10.792,10.429 -18.188,10.429c-11.033,0 -18.792,-8.004 -18.792,-21.1Z" style="fill:#fff;fill-rule:nonzero;"/><path d="M459.667,163.762l-9.7,0l1.454,-5.575l15.642,0l-3.396,13.817c6.791,-9.333 12.487,-14.787 17.216,-14.787c4,-0 6.184,2.3 6.184,5.333c-0,3.275 -2.667,5.942 -5.7,5.942c-2.788,-0 -4.725,-1.696 -5.334,-4.125c-4.12,2.429 -12.975,10.429 -15.883,22.433l-5.575,22.308l-6.308,0l11.4,-45.346Z" style="fill:#fff;fill-rule:nonzero;"/><path d="M492.275,180.008l32.492,0c0.608,-1.816 0.971,-3.879 0.971,-5.821c-0,-5.695 -3.88,-11.275 -13.096,-11.275c-8.971,0 -17.217,7.276 -20.367,17.096Zm-1.217,5.338c-0.116,1.087 -0.116,2.179 -0.116,3.271c-0,10.55 8.608,15.883 17.216,15.883c5.942,0 10.184,-1.212 16.734,-4.729l-1.459,6.546c-5.333,2.666 -9.696,3.762 -16.366,3.762c-11.763,0 -22.429,-7.641 -22.429,-21.342c-0,-17.216 13.458,-31.52 28.491,-31.52c11.517,-0 18.55,7.271 18.55,18.062c0,3.154 -0.725,6.429 -2.062,10.067l-38.559,-0Z" style="fill:#fff;fill-rule:nonzero;"/><path d="M599.442,178.192c-0,-9.096 -4.85,-15.28 -14.063,-15.28c-12.246,0 -20.733,12.734 -20.733,25.946c-0,9.459 4.608,15.521 13.337,15.521c13.217,0 21.459,-14.791 21.459,-26.187Zm-41.584,10.787c0,-17.333 12.609,-31.762 27.279,-31.762c9.217,-0 15.28,5.091 16.73,13.216l3.033,-12.854l6.3,0l-9.454,38.8c-0.484,1.938 -0.846,3.879 -0.846,4.846c0,2.425 1.575,4.004 3.754,4.004c2.671,0 4.734,-2.425 7.038,-8.004l3.754,1.212c-2.425,7.155 -6.058,11.4 -11.638,11.4c-5.333,0 -8.97,-3.395 -8.97,-8.125l-0,-2.062c-4.488,5.942 -10.792,10.429 -18.188,10.429c-11.033,0 -18.792,-8.004 -18.792,-21.1Z" style="fill:#fff;fill-rule:nonzero;"/></g></svg>